<svg width="607" height="351" viewBox="0 0 607 351" fill="none" xmlns="http://www.w3.org/2000/svg">
<path d="M137.174 97.6973C124.188 213.597 147.244 332.862 282.491 349.597C352.2 358.281 495.788 327.333 499.549 237.999C504.828 114.933 367.417 159.989 309.77 118.708C270.257 90.4123 300.796 14.1047 227.946 1.31641C170.313 -8.79282 142.572 49.5662 137.174 97.6973Z" fill="#D9D9D9"/>
<path d="M0.853772 333.592C0.853772 333.79 136.418 333.935 303.629 333.935C470.841 333.935 606.431 333.842 606.431 333.592C606.431 333.341 470.88 333.249 303.629 333.249C136.378 333.249 0.853772 333.46 0.853772 333.592Z" fill="#263238"/>
<path d="M420.396 165.52L465.306 165.7L465.079 222.409L420.168 222.229L420.396 165.52Z" fill="white"/>
<path d="M465.061 222.385H464.217H461.801L452.682 222.266L420.15 221.989L420.427 222.279C420.52 206.073 420.612 186.567 420.718 165.531C420.797 165.438 420.071 166.164 420.388 165.86H426.406H432.345H443.892H465.285L464.982 165.557C464.982 182.331 464.982 196.465 464.982 206.469C464.982 211.431 464.982 215.364 464.982 218.096C464.982 219.416 464.982 220.458 464.982 221.197C464.982 221.527 464.982 221.791 464.982 222.002C464.976 222.095 464.976 222.187 464.982 222.279C464.99 222.2 464.99 222.121 464.982 222.042C464.982 221.831 464.982 221.58 464.982 221.263C464.982 220.537 464.982 219.534 464.982 218.228C464.982 215.509 465.048 211.629 465.114 206.667C465.193 196.65 465.299 182.45 465.431 165.583V165.28H465.127L443.721 165.161H432.173H426.234H420.216L419.86 165.504C419.86 186.501 419.741 206.007 419.688 222.253V222.543H452.682H461.735H464.098C464.81 222.411 465.061 222.385 465.061 222.385Z" fill="#263238"/>
<path d="M439.209 221.007L445.438 221.031L445.432 222.549L439.203 222.525L439.209 221.007Z" fill="#263238"/>
<path d="M435.665 185.417L449.284 185.472L449.205 205.149L435.586 205.094L435.665 185.417Z" fill="#F83A2D"/>
<path opacity="0.5" d="M435.665 185.417L449.284 185.472L449.205 205.149L435.586 205.094L435.665 185.417Z" fill="white"/>
<path d="M438.558 164.802L444.788 164.827L444.782 166.12L438.553 166.095L438.558 164.802Z" fill="#263238"/>
<path d="M321.643 161.333C304.996 161.333 291.5 147.838 291.5 131.191C291.5 114.543 304.996 101.048 321.643 101.048C338.291 101.048 351.786 114.543 351.786 131.191C351.786 147.838 338.291 161.333 321.643 161.333Z" fill="#F83A2D"/>
<path d="M307.799 132.114C309.11 132.301 310.435 132.376 311.758 132.339C314.253 132.339 317.71 132.444 321.617 132.457H321.947V130.161C321.947 125.793 321.947 121.847 321.854 118.983C321.886 117.435 321.802 115.886 321.604 114.351C321.415 115.887 321.335 117.435 321.366 118.983C321.3 121.847 321.261 125.793 321.261 130.161V132.114L321.604 131.771C317.644 131.771 314.239 131.771 311.745 131.89C310.426 131.853 309.106 131.928 307.799 132.114Z" fill="white"/>
<path d="M321.553 105.996C321.368 105.996 321.21 107.131 321.21 108.53C321.21 109.929 321.368 111.064 321.553 111.064C321.738 111.064 321.896 109.929 321.896 108.53C321.896 107.131 321.751 105.996 321.553 105.996Z" fill="white"/>
<path d="M307.828 110.061C307.683 110.193 308.369 111.091 309.346 112.067C310.322 113.044 311.22 113.73 311.352 113.598C311.484 113.466 310.811 112.555 309.834 111.579C308.857 110.602 307.96 109.929 307.828 110.061Z" fill="white"/>
<path d="M299.787 118.838C299.708 119.01 300.632 119.643 301.793 120.356C302.955 121.068 303.944 121.583 304.05 121.425C304.156 121.266 303.337 120.488 302.149 119.762C300.962 119.036 299.866 118.666 299.787 118.838Z" fill="white"/>
<path d="M295.09 131.85C297.368 132.308 299.715 132.308 301.993 131.85C299.715 131.393 297.368 131.393 295.09 131.85Z" fill="white"/>
<path d="M342.957 131.388C345.106 131.846 347.327 131.846 349.477 131.388C347.327 130.931 345.106 130.931 342.957 131.388Z" fill="white"/>
<path d="M339.579 141.088C339.447 141.234 340.516 142.276 341.942 143.438C343.367 144.599 344.581 145.404 344.753 145.246C344.924 145.087 343.802 144.045 342.377 142.897C341.576 142.111 340.624 141.496 339.579 141.088Z" fill="white"/>
<path d="M331.184 148.585C331.54 149.653 332.061 150.66 332.728 151.567C333.679 153.138 334.457 154.418 334.642 154.325C334.451 153.199 333.999 152.132 333.322 151.211C332.399 149.601 331.369 148.466 331.184 148.585Z" fill="white"/>
<path d="M321.553 158.245C322.01 155.967 322.01 153.621 321.553 151.343C321.095 153.621 321.095 155.967 321.553 158.245Z" fill="white"/>
<path d="M306.678 153.653C307.795 153.287 308.805 152.652 309.621 151.805C311.072 150.485 311.983 149.258 311.838 149.166C310.87 149.767 309.983 150.49 309.198 151.317C307.76 152.518 306.559 153.481 306.678 153.653Z" fill="white"/>
<path d="M299.685 146.13C299.83 146.262 300.899 145.405 302.087 144.217C303.275 143.029 304.119 141.96 303.987 141.828C303.855 141.696 302.786 142.541 301.599 143.728C300.411 144.916 299.513 145.985 299.685 146.13Z" fill="white"/>
<path d="M339.895 122.111C340.027 122.243 340.977 121.517 342.02 120.474C343.063 119.432 343.788 118.482 343.656 118.35C343.524 118.218 342.561 118.943 341.532 119.986C340.502 121.029 339.763 121.979 339.895 122.111Z" fill="white"/>
<path d="M331.277 113.031C331.409 113.163 332.346 112.45 333.362 111.434C334.378 110.418 335.091 109.494 334.959 109.349C334.827 109.204 333.89 109.929 332.874 110.946C331.857 111.962 331.184 112.899 331.277 113.031Z" fill="white"/>
<path d="M182.255 222.849L228.306 227.218L225.361 258.251L179.311 253.881L182.255 222.849Z" fill="white"/>
<path d="M179.308 253.887C179.358 253.697 179.388 253.502 179.401 253.306C179.401 252.884 179.506 252.343 179.585 251.643C179.744 250.165 179.968 248.054 180.258 245.388C180.8 239.964 181.578 232.19 182.528 222.873L182.238 223.124L228.244 227.558C228.31 227.637 227.664 226.859 227.928 227.188V227.413V227.677V228.191L227.835 229.221L227.637 231.28C227.505 232.599 227.373 233.998 227.254 235.344C227.004 237.984 226.753 240.623 226.502 243.263C226.014 248.463 225.552 253.451 225.116 258.189L225.46 257.899L192.347 254.916L182.832 254.098L180.285 253.9H179.625H179.374C179.648 253.958 179.926 253.998 180.206 254.019L182.687 254.296L192.11 255.273L225.394 258.585H225.71V258.268C226.172 253.544 226.647 248.555 227.149 243.355C227.395 240.716 227.646 238.076 227.901 235.437L228.297 231.372L228.495 229.313L228.587 228.284V227.769V227.505V227.281L228.284 226.911L182.238 222.609H181.961V222.886C181.116 232.349 180.43 240.122 179.955 245.586C179.731 248.225 179.559 250.324 179.427 251.802C179.427 252.475 179.335 253.003 179.308 253.412C179.282 253.821 179.308 253.9 179.308 253.887Z" fill="#263238"/>
<path d="M182.265 222.847C182.677 223.473 183.145 224.061 183.664 224.602L187.623 229.248C191.054 233.207 195.845 238.486 201.216 244.504L201.414 244.728L201.665 244.57L202.893 243.791C209.94 239.291 216.301 235.186 220.894 232.191L226.305 228.614L227.756 227.611C228.082 227.374 228.24 227.242 228.232 227.215C228.037 227.287 227.851 227.379 227.677 227.492L226.16 228.39L220.63 231.781C215.971 234.672 209.57 238.71 202.523 243.21L201.296 243.989H201.731C196.36 238.024 191.503 232.692 187.979 228.878L183.796 224.378C183.316 223.837 182.805 223.326 182.265 222.847Z" fill="#263238"/>
<path d="M186.028 70.3106H244.413V157.202H186.028V70.3106Z" fill="#F83A2D"/>
<path opacity="0.3" d="M186.028 70.3106H244.413V157.202H186.028V70.3106Z" fill="black"/>
<path d="M185.354 157.876H245.099V69.5852H185.354V157.876ZM243.74 156.556H186.714V70.9841H243.74V156.556Z" fill="#263238"/>
<path d="M191.808 75.6688H238.541V151.792H191.808V75.6688Z" fill="white"/>
<path d="M202.114 97.2466H228.351V127.997H202.114V97.2466Z" fill="#F83A2D"/>
<path d="M280.021 221.249C279.606 221.207 279.211 221.057 278.872 220.814C278.475 220.517 278.191 220.093 278.067 219.613C277.989 218.93 277.967 218.241 278.001 217.554C278.001 214.334 278.001 209.768 277.909 204.172C277.909 202.764 277.909 201.286 277.909 199.737C277.909 198.959 277.909 198.18 277.909 197.375C277.881 196.993 277.881 196.609 277.909 196.227C277.98 195.875 278.149 195.55 278.397 195.29C278.652 195.033 278.979 194.858 279.334 194.788C279.743 194.761 280.153 194.761 280.562 194.788H283.201H288.652H312.948C313.404 194.797 313.84 194.974 314.172 195.287C314.503 195.599 314.707 196.024 314.743 196.478C314.743 197.534 314.743 198.589 314.743 199.619C314.743 201.717 314.809 203.789 314.835 205.822C314.835 209.886 314.967 213.806 315.02 217.541C315.02 218.003 315.02 218.478 315.02 218.927C315.053 219.329 314.956 219.732 314.743 220.075C314.542 220.407 314.235 220.663 313.872 220.801C313.484 220.923 313.076 220.967 312.671 220.933H307.524H298.286L284.904 221.038L281.261 221.104H280.324C280.215 221.083 280.103 221.083 279.994 221.104C280.103 221.122 280.215 221.122 280.324 221.104H281.261H284.904L298.286 221.223H307.524H312.711C313.191 221.269 313.675 221.219 314.136 221.078C314.622 220.887 315.034 220.545 315.31 220.101C315.581 219.657 315.714 219.143 315.693 218.623C315.693 218.161 315.693 217.699 315.693 217.224C315.693 213.489 315.601 209.57 315.548 205.505C315.548 203.472 315.548 201.414 315.469 199.315C315.469 198.259 315.469 197.19 315.469 196.121C315.42 195.495 315.138 194.909 314.679 194.479C314.22 194.049 313.616 193.807 312.988 193.799H288.691H280.628C280.188 193.768 279.747 193.768 279.308 193.799C278.835 193.891 278.402 194.126 278.067 194.472C277.747 194.815 277.528 195.239 277.434 195.699C277.392 196.138 277.392 196.58 277.434 197.019C277.434 197.811 277.434 198.603 277.434 199.368C277.434 200.912 277.434 202.39 277.526 203.802C277.645 209.411 277.751 213.964 277.817 217.185C277.8 217.891 277.849 218.598 277.962 219.296C278.1 219.833 278.428 220.302 278.886 220.616C279.154 220.796 279.462 220.909 279.783 220.946C279.915 221.276 280.021 221.263 280.021 221.249Z" fill="#263238"/>
<path d="M295.05 205.584L290.549 208.316L295.142 211.022L299.748 213.714L299.656 208.276L299.55 202.852L295.05 205.584Z" fill="#263238"/>
<path d="M388.54 283.951L422.247 265.791C418.31 263.087 415.094 259.463 412.876 255.233L400.537 231.597C399.378 229.448 397.702 227.622 395.66 226.284C393.619 224.945 391.276 224.136 388.844 223.929L357.579 240.729C361.263 242.466 364.293 245.339 366.223 248.925L380.186 274.779C382.17 278.494 385.034 281.666 388.527 284.017L388.54 283.951Z" fill="white"/>
<path d="M388.541 283.951L388.172 283.66L387.076 282.803C385.695 281.694 384.43 280.447 383.302 279.081C382.48 278.101 381.735 277.06 381.072 275.966C380.359 274.765 379.673 273.327 378.881 272.007L373.602 262.135C371.635 258.48 369.497 254.481 367.201 250.179C366.637 249.064 366.007 247.984 365.314 246.945C364.568 245.879 363.719 244.889 362.78 243.989C361.804 243.071 360.738 242.253 359.599 241.547C359.019 241.191 358.425 240.861 357.805 240.558C357.805 241.666 357.805 240.861 357.805 241.099H357.91L358.134 240.98L358.583 240.729L359.494 240.254L374.592 231.913L382.655 227.624L386.747 225.407L388.818 224.298L388.95 224.219H389.016H388.858H389.148L389.716 224.285C390.099 224.364 390.481 224.417 390.851 224.51C393.844 225.234 396.524 226.905 398.492 229.274C399.449 230.435 400.256 231.712 400.894 233.075L402.979 237.034L410.898 252.277C412.059 254.701 413.414 257.026 414.949 259.232C416.472 261.272 418.245 263.113 420.228 264.709C420.703 265.092 421.192 265.461 421.693 265.804L421.865 265.936L421.957 266.002C421.957 265.052 421.957 265.751 421.957 265.54L421.575 265.751L420.783 266.174L417.747 267.824L412.033 270.938L394.81 280.361L390.138 283.001L388.937 283.687C388.794 283.758 388.657 283.842 388.528 283.938C388.68 283.894 388.827 283.832 388.964 283.753L390.204 283.119L394.929 280.638L412.257 271.4L417.998 268.325L421.047 266.689L421.825 266.266L422.221 266.055C422.221 265.844 422.221 266.517 422.221 265.567L422.129 265.501L421.944 265.369C421.456 265.026 420.981 264.669 420.519 264.287C418.581 262.714 416.847 260.905 415.359 258.902C413.852 256.718 412.528 254.414 411.399 252.013L403.481 236.744L401.396 232.784C400.744 231.366 399.914 230.035 398.928 228.825C396.842 226.366 394.019 224.645 390.877 223.916C390.495 223.81 390.085 223.757 389.69 223.678L389.096 223.612H388.792H388.568H388.502L388.37 223.678L386.298 224.8L382.207 227.004L374.209 231.333L359.085 239.515L358.174 240.003L357.739 240.254L357.514 240.373H357.395C357.395 240.637 357.395 239.832 357.395 240.954C357.993 241.239 358.574 241.556 359.137 241.904C360.246 242.577 361.281 243.365 362.226 244.253C363.139 245.12 363.966 246.075 364.694 247.104C365.381 248.125 366.007 249.187 366.568 250.284L373.034 262.162L378.406 271.994C379.198 273.432 379.897 274.792 380.649 275.953C381.338 277.046 382.105 278.087 382.946 279.068C384.127 280.432 385.455 281.662 386.905 282.737C387.393 283.093 387.776 283.37 388.04 283.528C388.183 283.695 388.352 283.838 388.541 283.951Z" fill="#263238"/>
<path d="M372.876 249.638C372.876 249.756 378.458 246.866 385.215 243.184C391.972 239.502 397.383 236.427 397.317 236.308C397.251 236.189 391.735 239.093 384.978 242.762C378.221 246.431 372.81 249.532 372.876 249.638Z" fill="#263238"/>
<path d="M374.737 254.349C374.737 254.467 380.504 251.472 387.485 247.671C394.467 243.87 400.062 240.689 399.996 240.571C399.931 240.452 394.229 243.448 387.248 247.248C380.266 251.049 374.657 254.217 374.737 254.349Z" fill="#263238"/>
<path d="M376.954 258.44C376.954 258.545 382.734 255.563 389.702 251.762C396.671 247.961 402.279 244.767 402.227 244.648C402.174 244.53 396.446 247.526 389.478 251.326C382.51 255.127 376.901 258.308 376.954 258.44Z" fill="#263238"/>
<path d="M379.197 262.531C379.263 262.65 384.964 259.654 391.945 255.853C398.927 252.052 404.522 248.872 404.456 248.753C404.39 248.634 398.689 251.63 391.708 255.431C384.726 259.232 379.131 262.412 379.197 262.531Z" fill="#263238"/>
<path d="M381.429 266.623C381.495 266.741 387.197 263.759 394.178 259.945C401.16 256.131 406.755 252.963 406.689 252.845C406.623 252.726 400.922 255.722 393.941 259.522C386.959 263.323 381.337 266.517 381.429 266.623Z" fill="#263238"/>
<path d="M395.852 264.101C396.545 263.872 397.213 263.571 397.845 263.204C399.059 262.597 400.709 261.726 402.517 260.736C404.325 259.746 405.961 258.836 407.123 258.097C407.779 257.763 408.399 257.36 408.97 256.896C408.268 257.113 407.594 257.414 406.964 257.793C405.75 258.4 404.1 259.271 402.292 260.261C400.484 261.251 398.848 262.161 397.686 262.901C397.032 263.232 396.417 263.634 395.852 264.101Z" fill="#263238"/>
<path d="M387.855 274.699C387.855 274.699 387.723 274.369 387.591 273.762C387.414 272.921 387.516 272.046 387.881 271.268C388.175 270.647 388.635 270.119 389.211 269.743C389.787 269.367 390.455 269.158 391.143 269.139C391.83 269.12 392.509 269.292 393.105 269.635C393.7 269.979 394.189 270.48 394.517 271.085C394.845 271.689 394.999 272.372 394.962 273.059C394.925 273.745 394.699 274.408 394.308 274.974C393.917 275.54 393.378 275.986 392.749 276.264C392.12 276.541 391.426 276.64 390.745 276.547C389.892 276.433 389.1 276.043 388.488 275.438C388.053 275.003 387.894 274.699 387.855 274.726C387.952 275.043 388.124 275.333 388.356 275.57C388.958 276.269 389.784 276.736 390.692 276.89C391.373 277.002 392.072 276.94 392.723 276.709C393.373 276.478 393.955 276.087 394.414 275.57C394.99 274.935 395.353 274.136 395.455 273.285C395.556 272.434 395.39 271.572 394.98 270.819C394.569 270.066 393.935 269.46 393.164 269.084C392.393 268.708 391.525 268.581 390.679 268.721C389.996 268.826 389.351 269.105 388.806 269.53C388.261 269.955 387.833 270.512 387.564 271.149C387.211 271.985 387.155 272.917 387.406 273.789C387.487 274.121 387.641 274.432 387.855 274.699Z" fill="#263238"/>
<path d="M385.068 237.035L394.812 231.721L395.576 233.122L385.832 238.437L385.068 237.035Z" fill="#263238"/>
<path d="M420.427 131.19L429.059 122.018V152.412L410.727 131.837L420.427 131.19Z" fill="#F83A2D"/>
<path opacity="0.5" d="M420.427 131.19L429.059 122.018V152.412L410.727 131.837L420.427 131.19Z" fill="white"/>
<path d="M428.859 152.188L418.129 131.336L420.426 131.191L421.838 129.699L428.859 152.188Z" fill="#F83A2D"/>
<path d="M420.427 131.19C420.636 132.293 420.955 133.371 421.378 134.41C422.064 136.377 423.08 139.056 424.294 141.986C425.508 144.916 426.683 147.515 427.541 149.403C427.945 150.454 428.453 151.462 429.059 152.412C428.807 151.315 428.449 150.245 427.99 149.218C427.237 147.278 426.155 144.638 424.928 141.722C423.7 138.805 422.724 136.443 421.84 134.239C421.477 133.176 421.004 132.154 420.427 131.19Z" fill="#263238"/>
<path d="M420.492 127.166C420.43 129.388 420.83 131.599 421.667 133.659C421.819 132.55 421.738 131.422 421.429 130.346C421.338 129.233 421.019 128.15 420.492 127.166Z" fill="#263238"/>
<path d="M417.049 114.456C417.027 115.574 417.238 116.684 417.669 117.716C417.897 118.815 418.346 119.857 418.989 120.777C419.009 119.66 418.798 118.55 418.369 117.518C418.141 116.418 417.692 115.376 417.049 114.456Z" fill="#263238"/>
<path d="M412.192 102.169C412.309 103.28 412.645 104.356 413.181 105.336C413.517 106.399 414.065 107.382 414.792 108.227C414.678 107.115 414.342 106.038 413.802 105.059C413.47 103.995 412.922 103.011 412.192 102.169Z" fill="#263238"/>
<path d="M406.028 90.503C406.247 91.6011 406.697 92.6401 407.348 93.5516C407.81 94.5495 408.465 95.4465 409.274 96.1911C409.038 95.0984 408.59 94.0626 407.955 93.1425C407.494 92.1435 406.839 91.2462 406.028 90.503Z" fill="#263238"/>
<path d="M398.613 79.5883C398.965 80.6477 399.526 81.6258 400.262 82.4654C401.318 83.9435 402.308 85.1049 402.466 84.9465C402.121 83.884 401.559 82.9045 400.817 82.0694C399.748 80.5781 398.758 79.4828 398.613 79.5883Z" fill="#263238"/>
<path d="M390.032 69.585C390.505 70.5877 391.173 71.4852 391.999 72.2245C393.213 73.5443 394.322 74.5605 394.467 74.4285C394.612 74.2965 393.728 73.1087 392.5 71.789C391.273 70.4692 390.178 69.4399 390.032 69.585Z" fill="#263238"/>
<path d="M380.372 60.584C380.253 60.7291 381.256 61.8245 382.629 63.0255C383.384 63.8315 384.289 64.4817 385.295 64.9391C385.427 64.794 384.41 63.7118 383.038 62.4976C381.665 61.2834 380.491 60.4388 380.372 60.584Z" fill="#263238"/>
<path d="M369.722 52.811C369.617 52.9825 370.778 53.88 372.256 54.9358C373.107 55.6578 374.095 56.2009 375.16 56.5326C375.279 56.3875 374.157 55.4109 372.652 54.3683C371.809 53.6299 370.806 53.0969 369.722 52.811Z" fill="#263238"/>
<path d="M358.2 46.3842C358.108 46.5557 359.362 47.374 360.972 48.2054C361.904 48.8237 362.956 49.2375 364.06 49.4196C363.267 48.6337 362.325 48.0144 361.289 47.5983C360.354 46.9856 359.302 46.5723 358.2 46.3842Z" fill="#263238"/>
<path d="M345.995 41.382C346.875 42.0698 347.885 42.5726 348.964 42.8601C349.964 43.3576 351.055 43.6451 352.171 43.7048C351.296 43.0066 350.284 42.4987 349.201 42.2135C348.2 41.7212 347.109 41.4383 345.995 41.382Z" fill="#263238"/>
<path d="M333.282 37.8322C334.235 38.4107 335.294 38.7922 336.396 38.9539C337.448 39.3356 338.567 39.4929 339.683 39.4158C337.681 38.4524 335.502 37.9132 333.282 37.8322Z" fill="#263238"/>
<path d="M320.245 35.7863C321.261 36.2516 322.361 36.5074 323.478 36.5386C324.566 36.791 325.693 36.8179 326.791 36.6178C325.781 36.1459 324.685 35.8854 323.571 35.8523C322.479 35.599 321.346 35.5766 320.245 35.7863Z" fill="#263238"/>
<path d="M307.074 35.2713C308.134 35.6139 309.251 35.7396 310.36 35.6408C311.469 35.7653 312.592 35.662 313.66 35.3373C312.601 34.9908 311.483 34.8607 310.374 34.9545C309.264 34.8262 308.139 34.9341 307.074 35.2713Z" fill="#263238"/>
<path d="M293.929 36.2879C295.022 36.5042 296.148 36.5042 297.241 36.2879C298.355 36.2719 299.454 36.0341 300.475 35.5885C298.249 35.3573 296 35.6001 293.876 36.3011L293.929 36.2879Z" fill="#263238"/>
<path d="M281.036 38.8874C283.262 38.851 285.453 38.3379 287.463 37.3829C285.241 37.4408 283.054 37.9528 281.036 38.8874Z" fill="#263238"/>
<path d="M268.498 43.0978C270.701 42.7697 272.809 41.9828 274.688 40.7882C273.569 40.8427 272.473 41.1257 271.468 41.6196C270.391 41.9135 269.382 42.4157 268.498 43.0978Z" fill="#263238"/>
<path d="M256.726 49.0364C258.875 48.3927 260.864 47.2996 262.559 45.8294C261.458 46.0531 260.416 46.5024 259.497 47.1492C258.455 47.5832 257.512 48.2253 256.726 49.0364Z" fill="#263238"/>
<path d="M246.142 56.8762C246.274 57.0213 247.462 56.2031 248.913 55.0681C250.365 53.9331 251.368 52.8773 251.249 52.719C251.13 52.5606 249.93 53.3788 248.478 54.527C247.026 55.6752 246.01 56.7442 246.142 56.8762Z" fill="#263238"/>
<path d="M237.115 66.4438C237.273 66.5362 238.184 65.3881 239.332 63.9891C240.11 63.2142 240.765 62.3239 241.272 61.3496C241.14 61.2177 239.952 62.1547 238.804 63.58C238.006 64.3748 237.424 65.3607 237.115 66.4438Z" fill="#263238"/>
<path d="M271.15 206.68C272.224 206.95 273.341 207.004 274.436 206.838C275.552 206.887 276.666 206.707 277.709 206.311C276.627 206.035 275.5 205.981 274.397 206.152C273.29 206.104 272.185 206.283 271.15 206.68Z" fill="#263238"/>
<path d="M257.98 206.02C259.01 206.459 260.121 206.675 261.24 206.653C262.333 206.876 263.459 206.876 264.552 206.653C262.417 206.001 260.17 205.803 257.954 206.073L257.98 206.02Z" fill="#263238"/>
<path d="M245.098 203.195C247.082 204.2 249.252 204.784 251.472 204.911C249.488 203.907 247.318 203.323 245.098 203.195Z" fill="#263238"/>
<path d="M233.063 197.837C233.816 198.672 234.751 199.322 235.795 199.738C236.741 200.35 237.816 200.734 238.936 200.859C239.015 200.675 237.722 199.949 236.112 199.131C235.179 198.525 234.147 198.088 233.063 197.837Z" fill="#263238"/>
<path d="M222.716 189.681C222.571 189.813 223.494 191.001 224.854 192.215C225.614 193.047 226.559 193.689 227.612 194.089C227.731 193.931 226.662 192.915 225.316 191.714C223.97 190.513 222.848 189.589 222.716 189.681Z" fill="#263238"/>
<path d="M214.876 179.124C215.096 180.232 215.575 181.272 216.275 182.159C217.265 183.703 218.281 184.799 218.426 184.68C218.068 183.633 217.533 182.655 216.843 181.79C215.866 180.272 215.048 179.124 214.876 179.124Z" fill="#263238"/>
<path d="M210.417 166.784C210.37 169.024 210.975 171.23 212.159 173.132C212.121 172.024 211.894 170.93 211.486 169.899C211.301 168.81 210.939 167.758 210.417 166.784Z" fill="#263238"/>
<path d="M209.953 156.319C209.768 156.319 209.57 157.163 209.517 158.259C209.464 159.354 209.583 160.225 209.768 160.225C209.953 160.225 210.15 159.354 210.203 158.285C210.256 157.216 210.151 156.345 209.953 156.319Z" fill="#263238"/>
<path d="M371.914 225.764C372.319 226.8 372.905 227.756 373.643 228.588C374.712 230.053 375.609 231.227 375.768 231.122C375.484 230.03 374.946 229.022 374.197 228.179C373.128 226.635 372.099 225.645 371.914 225.764Z" fill="#263238"/>
<path d="M362.435 216.631C362.317 216.776 363.399 217.779 364.771 218.967C366.144 220.154 367.305 221.065 367.411 220.92C367.516 220.775 366.579 219.6 365.194 218.439C363.808 217.277 362.554 216.472 362.435 216.631Z" fill="#263238"/>
<path d="M351.153 209.807C351.94 210.601 352.878 211.23 353.911 211.655C354.841 212.276 355.887 212.703 356.986 212.909C356.2 212.111 355.262 211.479 354.228 211.048C353.3 210.427 352.253 210.005 351.153 209.807Z" fill="#263238"/>
<path d="M338.667 205.519C340.684 206.434 342.829 207.034 345.028 207.3C344.126 206.624 343.077 206.172 341.966 205.98C340.917 205.573 339.787 205.415 338.667 205.519Z" fill="#263238"/>
<path d="M325.577 204.198C326.639 204.527 327.752 204.661 328.863 204.594C329.959 204.766 331.077 204.734 332.162 204.502C330.03 203.811 327.75 203.706 325.563 204.198H325.577Z" fill="#263238"/>
<path d="M318.187 204.819C318.212 204.914 318.272 204.996 318.356 205.047C318.439 205.099 318.54 205.116 318.636 205.096C318.686 205.094 318.735 205.083 318.781 205.062C318.827 205.041 318.868 205.011 318.902 204.975C318.937 204.938 318.963 204.895 318.981 204.848C318.999 204.801 319.007 204.75 319.005 204.7C318.98 204.602 318.918 204.517 318.832 204.463C318.746 204.409 318.643 204.39 318.543 204.41C318.319 204.449 318.147 204.621 318.187 204.819Z" fill="#263238"/>
<path d="M355.126 313.737C354.043 314.023 353.032 314.531 352.156 315.228C350.625 316.218 349.517 317.142 349.517 317.3C350.602 317.022 351.615 316.513 352.486 315.809C354.07 314.78 355.231 313.856 355.126 313.737Z" fill="#263238"/>
<path d="M365.711 305.819C364.67 306.223 363.719 306.828 362.913 307.601C361.501 308.735 360.432 309.765 360.55 309.923C360.669 310.082 361.87 309.277 363.348 308.142C364.826 307.007 365.843 305.977 365.711 305.819Z" fill="#263238"/>
<path d="M373.786 295.498C373.614 295.406 372.796 296.633 371.832 298.138C371.154 299.013 370.623 299.994 370.262 301.041C370.407 301.16 371.437 300.065 372.413 298.507C373.095 297.623 373.565 296.593 373.786 295.498Z" fill="#263238"/>
<path d="M378.83 283.383C377.662 285.277 376.907 287.395 376.612 289.599C377.287 288.708 377.772 287.689 378.038 286.603C378.514 285.594 378.783 284.499 378.83 283.383Z" fill="#263238"/>
<path d="M281.1 215.419L283.819 332.863H288.992L288.662 215.709L281.1 215.419Z" fill="#455A64"/>
<path d="M262.389 214.113L237.208 332.863H231.428L252.398 214.113H262.389Z" fill="#455A64"/>
<path d="M309.609 215.419L337.469 332.863H343.249L317.95 214.931L309.609 215.419Z" fill="#455A64"/>
<path d="M237.127 102.858C237.127 102.858 209.306 101.275 212.051 133.45C214.797 165.625 216.42 198.21 226.753 209.335C237.087 220.461 341.175 220.856 349.912 211.724C358.649 202.591 333.23 202.974 328.466 202.974C323.702 202.974 294.298 205.759 284.756 180.736C275.214 155.714 277.643 101.209 237.127 102.858Z" fill="#455A64"/>
<path d="M235.347 102.858C235.347 102.858 214.086 107.214 216.066 129.464C218.045 151.715 223.615 190.648 233.948 200.585C244.282 210.523 284.758 212.674 306.653 211.315C332.084 209.718 348.132 204.875 348.132 204.875C348.132 204.875 352.778 207.857 351.366 209.784C349.954 211.711 337.561 219.431 277.46 218.151C217.359 216.871 221.543 207.989 219.048 198.355C216.554 188.721 211.315 137.027 212.04 125.677C212.766 114.327 218.494 104.798 235.347 102.858Z" fill="#455A64"/>
<path opacity="0.2" d="M235.347 102.858C235.347 102.858 214.086 107.214 216.066 129.464C218.045 151.715 223.615 190.648 233.948 200.585C244.282 210.523 284.758 212.674 306.653 211.315C332.084 209.718 348.132 204.875 348.132 204.875C348.132 204.875 352.778 207.857 351.366 209.784C349.954 211.711 337.561 219.431 277.46 218.151C217.359 216.871 221.543 207.989 219.048 198.355C216.554 188.721 211.315 137.027 212.04 125.677C212.766 114.327 218.494 104.798 235.347 102.858Z" fill="black"/>
<path d="M252.78 146.119C252.674 146.552 252.448 146.946 252.128 147.257C251.807 147.567 251.406 147.781 250.97 147.875C250.534 147.968 250.081 147.936 249.662 147.784C249.243 147.632 248.875 147.364 248.601 147.013C248.326 146.661 248.157 146.24 248.111 145.796C248.065 145.353 248.145 144.905 248.341 144.505C248.538 144.105 248.843 143.768 249.222 143.533C249.601 143.298 250.038 143.174 250.484 143.176C250.828 143.218 251.16 143.328 251.462 143.499C251.764 143.67 252.029 143.899 252.242 144.172C252.455 144.445 252.612 144.758 252.705 145.092C252.797 145.426 252.823 145.775 252.78 146.119Z" fill="#455A64"/>
<path d="M251.209 133.093C251.656 134.483 251.922 135.925 252.001 137.383C252.014 138.945 251.666 140.49 250.985 141.896C250.591 142.718 250.08 143.478 249.467 144.153C249.082 144.508 248.725 144.891 248.398 145.301C248.219 145.555 248.093 145.843 248.028 146.146C247.962 146.45 247.958 146.764 248.016 147.069C248.331 148.062 248.723 149.029 249.19 149.96C249.431 150.818 249.547 151.707 249.533 152.599C249.5 154.161 249.103 155.693 248.372 157.073C247.642 158.325 246.755 159.478 245.732 160.504C245.732 160.504 246.142 160.359 246.762 159.858C247.617 159.154 248.34 158.306 248.9 157.35C249.762 155.915 250.248 154.285 250.312 152.612C250.355 151.615 250.24 150.617 249.969 149.656C249.539 148.759 249.16 147.838 248.834 146.898C248.623 146.014 249.349 145.393 250.074 144.654C250.733 143.913 251.276 143.077 251.685 142.173C252.384 140.659 252.696 138.995 252.595 137.33C252.539 136.219 252.293 135.125 251.869 134.096C251.722 133.72 251.497 133.378 251.209 133.093Z" fill="#455A64"/>
<path d="M257.518 142.305C257.386 142.305 257.518 143.005 257.188 143.981C256.794 145.255 255.98 146.358 254.879 147.109C253.732 147.819 252.444 148.27 251.104 148.429C250.049 148.587 249.376 148.601 249.376 148.719C249.376 148.838 250.035 148.997 251.144 148.983C252.627 148.97 254.077 148.54 255.328 147.743C255.951 147.323 256.486 146.784 256.9 146.156C257.315 145.529 257.601 144.826 257.743 144.087C257.914 142.952 257.598 142.279 257.518 142.305Z" fill="#455A64"/>
<g opacity="0.2">
<path d="M252.779 146.119C252.673 146.552 252.447 146.946 252.127 147.257C251.807 147.567 251.405 147.781 250.969 147.875C250.533 147.968 250.08 147.937 249.661 147.784C249.242 147.632 248.874 147.365 248.6 147.013C248.326 146.661 248.156 146.24 248.11 145.796C248.064 145.353 248.144 144.905 248.34 144.505C248.537 144.105 248.842 143.768 249.221 143.533C249.6 143.298 250.037 143.174 250.483 143.176C250.827 143.219 251.159 143.328 251.461 143.499C251.763 143.67 252.028 143.899 252.241 144.172C252.454 144.445 252.611 144.758 252.704 145.092C252.796 145.426 252.822 145.775 252.779 146.119Z" fill="black"/>
<path d="M251.208 133.094C251.655 134.483 251.921 135.925 252 137.383C252.013 138.945 251.665 140.49 250.984 141.896C250.59 142.718 250.079 143.478 249.466 144.153C249.081 144.508 248.724 144.892 248.397 145.301C248.219 145.555 248.092 145.843 248.027 146.147C247.961 146.45 247.957 146.764 248.015 147.07C248.33 148.062 248.722 149.029 249.189 149.96C249.43 150.818 249.546 151.708 249.532 152.599C249.499 154.161 249.102 155.693 248.371 157.073C247.641 158.325 246.754 159.478 245.732 160.505C245.732 160.505 246.141 160.359 246.761 159.858C247.616 159.155 248.339 158.306 248.899 157.35C249.761 155.915 250.247 154.286 250.311 152.613C250.354 151.615 250.239 150.617 249.968 149.656C249.538 148.759 249.159 147.838 248.833 146.898C248.622 146.014 249.348 145.394 250.073 144.654C250.732 143.913 251.275 143.077 251.684 142.173C252.383 140.659 252.695 138.995 252.594 137.33C252.538 136.219 252.292 135.125 251.868 134.097C251.721 133.72 251.496 133.378 251.208 133.094Z" fill="black"/>
<path d="M257.517 142.306C257.385 142.306 257.517 143.005 257.187 143.982C256.793 145.255 255.979 146.358 254.878 147.109C253.731 147.82 252.443 148.27 251.103 148.429C250.048 148.588 249.375 148.601 249.375 148.719C249.375 148.838 250.034 148.997 251.143 148.983C252.626 148.97 254.076 148.54 255.327 147.743C255.95 147.323 256.485 146.784 256.899 146.156C257.314 145.529 257.6 144.826 257.742 144.087C257.913 142.952 257.597 142.279 257.517 142.306Z" fill="black"/>
</g>
<path d="M284.69 22.4993C285.046 22.3673 285.508 22.2221 286.115 22.0638C288.175 21.5178 290.313 21.3259 292.437 21.4963C295.644 21.7239 298.675 23.0526 301.015 25.2575C302.399 26.5675 303.46 28.1802 304.116 29.969C304.452 30.921 304.648 31.9169 304.697 32.9252C304.697 33.9546 304.618 34.9576 304.697 35.9343C304.692 36.394 304.78 36.85 304.957 37.2744C305.134 37.6988 305.396 38.0825 305.727 38.4022C306.456 38.9824 307.283 39.4292 308.168 39.7219C309.083 40.062 309.935 40.5527 310.689 41.1736C311.714 42.0531 312.468 43.207 312.861 44.4997C313.253 45.7925 313.269 47.1704 312.906 48.4718C312.442 49.8641 311.808 51.1939 311.019 52.431C310.702 52.9325 310.438 53.4209 310.187 53.896C310.141 54.3082 310.141 54.7243 310.187 55.1365C310.483 56.9445 311.358 58.6074 312.682 59.8744C314.007 61.1239 315.161 62.5441 316.113 64.0976C316.579 64.8847 316.806 65.7905 316.767 66.7045C316.727 67.6185 316.422 68.5011 315.889 69.2446C314.569 70.7755 312.233 70.7755 310.2 70.7227C303.144 70.6814 296.092 71.0737 289.085 71.8973L283.383 22.8292C283.779 22.7324 284.215 22.6225 284.69 22.4993ZM302.467 31.1832C302.783 33.1232 302.467 35.2216 303.43 36.9505C304.394 38.6793 306.492 39.7219 308.062 41.0945C309.28 42.191 310.2 43.5786 310.735 45.1274C311.271 46.6761 311.405 48.3354 311.124 49.9499C310.979 50.7682 310.715 51.5732 310.491 52.3915L310.57 52.2595C311.316 51.0169 311.905 49.6871 312.325 48.3003C312.755 46.7443 312.575 45.0832 311.824 43.6548C311.439 42.8846 310.9 42.2018 310.24 41.6487C309.532 41.0791 308.734 40.6329 307.878 40.329C306.919 39.9988 306.026 39.503 305.238 38.8641C304.845 38.4843 304.533 38.029 304.319 37.5256C304.106 37.0222 303.997 36.4809 303.998 35.9343C303.998 34.8653 304.09 33.8623 303.998 32.9121C303.957 31.9718 303.779 31.0425 303.47 30.1538C302.855 28.4569 301.862 26.9224 300.566 25.6667C298.332 23.5384 295.444 22.227 292.371 21.945C291.7 21.872 291.026 21.8368 290.352 21.8394C291.908 21.8922 293.448 22.1814 294.918 22.6972C296.809 23.3275 298.501 24.443 299.826 25.9321C301.15 27.4212 302.061 29.2319 302.467 31.1832Z" fill="#263238"/>
<path d="M292.782 80.5411C292.373 78.2844 293.099 68.7558 293.099 68.7558C293.099 68.7558 301.545 67.6868 301.915 59.0557C302.285 50.4246 301.413 30.5625 301.413 30.5625L285.867 23.0927L272.287 38.5733L272.036 80.4092L292.782 80.5411Z" fill="#FFBE9D"/>
<path d="M299.237 45.08C299.237 45.2935 299.174 45.5022 299.055 45.6798C298.937 45.8575 298.769 45.9962 298.572 46.0785C298.375 46.1608 298.158 46.183 297.948 46.1423C297.739 46.1016 297.546 45.9998 297.394 45.8498C297.242 45.6997 297.138 45.5081 297.095 45.2991C297.052 45.0901 297.071 44.8729 297.151 44.6749C297.231 44.477 297.368 44.3071 297.544 44.1866C297.72 44.0661 297.928 44.0004 298.141 43.9978C298.43 43.9978 298.706 44.1114 298.911 44.314C299.116 44.5165 299.233 44.7918 299.237 45.08Z" fill="#263238"/>
<path d="M301.002 43.8657C300.87 44.0109 300.065 43.3247 298.903 43.2851C297.742 43.2455 296.884 43.8261 296.765 43.6678C296.646 43.5094 296.844 43.3379 297.214 43.0607C297.714 42.7087 298.319 42.5365 298.93 42.5724C299.545 42.5949 300.135 42.8225 300.606 43.2191C300.949 43.4698 301.068 43.7998 301.002 43.8657Z" fill="#263238"/>
<path d="M286.643 45.08C286.643 45.2935 286.58 45.5022 286.462 45.6798C286.343 45.8575 286.175 45.9962 285.978 46.0785C285.781 46.1608 285.564 46.183 285.355 46.1423C285.145 46.1016 284.952 45.9998 284.8 45.8498C284.648 45.6997 284.544 45.5081 284.501 45.2991C284.458 45.0901 284.477 44.8729 284.557 44.6749C284.637 44.477 284.774 44.3071 284.95 44.1866C285.126 44.0661 285.334 44.0004 285.548 43.9978C285.836 43.9978 286.113 44.1114 286.318 44.314C286.523 44.5165 286.64 44.7918 286.643 45.08Z" fill="#263238"/>
<path d="M288.176 44.09C288.044 44.2352 287.239 43.5489 286.078 43.5093C284.916 43.4697 284.058 44.0504 283.94 43.8921C283.821 43.7337 284.019 43.5621 284.388 43.285C284.89 42.9347 285.493 42.7585 286.104 42.7835C286.718 42.8118 287.306 43.0387 287.78 43.4301C288.123 43.7469 288.242 44.024 288.176 44.09Z" fill="#263238"/>
<path d="M292.53 54.0275C293.144 53.8502 293.778 53.7526 294.417 53.7371C294.708 53.7371 294.985 53.7371 295.038 53.46C295.074 53.1333 295.015 52.8031 294.866 52.5098C294.589 51.7311 294.312 50.9129 294.021 50.0551C293.237 47.9771 292.615 45.8415 292.161 43.6675C293.092 45.6832 293.873 47.7653 294.497 49.8967C294.774 50.7545 295.038 51.5727 295.302 52.3514C295.481 52.7438 295.527 53.184 295.434 53.6051C295.39 53.7132 295.322 53.8098 295.235 53.8876C295.148 53.9653 295.044 54.0222 294.932 54.0539C294.765 54.0714 294.597 54.0714 294.431 54.0539C293.799 54.1262 293.16 54.1173 292.53 54.0275Z" fill="#263238"/>
<path d="M293.099 68.756C289.091 68.6474 285.202 67.3724 281.908 65.0871C281.908 65.0871 284.547 71.3691 292.954 70.8676L293.099 68.756Z" fill="#EB996E"/>
<path d="M251.132 50.0684C251.674 50.1573 252.227 50.1573 252.768 50.0684C253.745 48.5375 255.5 47.4289 256.807 46.0167C257.059 44.7583 256.949 43.454 256.49 42.2555C256.245 41.587 256.042 40.9038 255.883 40.2099C255.699 39.4403 255.74 38.6339 256.002 37.8871C256.694 36.4572 257.908 35.3471 259.394 34.7857C260.555 33.1625 262.68 32.4102 264.158 31.0245C264.462 30.2766 264.683 29.4977 264.818 28.7017C264.998 27.4019 265.34 26.1296 265.834 24.9141C266.341 23.8707 267.093 22.9652 268.025 22.2746C269.102 21.4322 270.389 20.8985 271.746 20.7305C272.698 20.2358 273.723 19.8971 274.782 19.7275C276.387 19.4936 278.024 19.6327 279.567 20.1339C281.109 20.6351 282.516 21.485 283.677 22.6177C286.039 22.0206 288.497 21.9044 290.905 22.2763C293.312 22.6481 295.621 23.5002 297.692 24.7821C299.593 25.7909 301.141 27.3565 302.127 29.2692C302.788 31.0615 303.071 32.9712 302.958 34.8781C302.958 36.1979 302.958 37.61 302.958 38.9693C302.995 39.3202 302.926 39.6741 302.76 39.9855C302.568 40.1866 302.333 40.3411 302.072 40.4371C301.812 40.5332 301.532 40.5683 301.256 40.5398L294.934 40.7774C294.506 40.8327 294.071 40.764 293.68 40.5794C293.35 40.3648 293.084 40.0653 292.91 39.7123C292.736 39.3593 292.66 38.9658 292.691 38.5734C292.691 37.9795 292.691 36.7654 292.691 36.4222C292.483 37.2488 292.232 38.0638 291.938 38.8637C291.881 39.302 291.735 39.7239 291.508 40.103C291.281 40.4822 290.978 40.8106 290.619 41.0677C290.045 41.315 289.42 41.4192 288.797 41.3713C287.887 41.3713 286.976 41.3713 286.066 41.3713C285.602 41.4005 285.141 41.2852 284.746 41.0413C284.496 40.7734 284.32 40.4454 284.234 40.0893C284.149 39.7332 284.157 39.361 284.258 39.0089C284.499 38.0848 284.645 37.1385 284.693 36.1847C283.875 37.7947 283.479 39.8008 282.476 40.0647C281.456 40.2174 280.414 40.1407 279.427 39.8404C278.411 39.5236 277.698 39.2729 276.959 39.0353C277.021 39.4574 277.123 39.8728 277.263 40.2759C278.028 42.3479 279.757 44.3407 279.163 46.4655C278.569 48.5903 276.431 49.3293 275.323 51.0054C274.809 51.9729 274.52 53.0441 274.479 54.1389C274.438 55.2337 274.645 56.3236 275.085 57.327C275.98 59.3174 276.76 61.3576 277.421 63.4374C277.91 65.5622 277.566 68.1093 275.824 69.4158C274.373 70.288 272.68 70.672 270.994 70.5112L255.659 70.6432C254.671 70.7115 253.679 70.6042 252.729 70.3264C252.252 70.1873 251.821 69.9249 251.478 69.5658C251.135 69.2066 250.893 68.7634 250.776 68.2808C250.744 67.6973 250.855 67.1149 251.099 66.5838C251.342 66.0527 251.712 65.5888 252.175 65.2322C253.108 64.5031 253.9 63.6084 254.51 62.5927C255.316 60.8639 254.51 58.8447 253.639 57.1686C252.768 55.4925 251.713 53.6713 252.043 51.7972C252.118 51.3355 252.27 50.8895 252.491 50.4775C251.992 50.5027 251.493 50.4447 251.013 50.3059C250.568 50.1927 250.151 49.9907 249.786 49.712C249.548 49.5273 249.443 49.4085 249.456 49.3821C249.978 49.6911 250.543 49.9223 251.132 50.0684ZM270.73 21.3244C269.855 21.6118 269.04 22.0593 268.328 22.6441C267.474 23.3175 266.795 24.1867 266.349 25.178C265.9 26.3602 265.594 27.592 265.438 28.8469C265.438 29.1108 265.332 29.388 265.28 29.6651C266.019 28.3454 266.388 26.8541 267.035 25.4948C267.869 23.8011 269.146 22.3646 270.73 21.3375V21.3244ZM258.852 35.8415C257.881 36.325 257.103 37.1259 256.648 38.1115C256.351 39.4443 256.509 40.8382 257.097 42.0707C257.475 43.0627 257.62 44.1285 257.519 45.1853C257.79 44.8195 258.011 44.4202 258.179 43.9975C259.182 41.49 257.929 38.4018 258.839 35.9075L258.852 35.8415Z" fill="#263238"/>
<path d="M292.108 57.076C292.04 56.7143 291.884 56.3748 291.653 56.0872C291.423 55.7997 291.127 55.5728 290.789 55.4264C290.555 55.3186 290.3 55.2628 290.043 55.2628C289.786 55.2628 289.531 55.3186 289.297 55.4264C289.064 55.5518 288.873 55.7449 288.751 55.9803C288.628 56.2158 288.58 56.4826 288.611 56.7461C288.678 57.0293 288.829 57.286 289.043 57.4834C289.256 57.6809 289.524 57.8101 289.812 57.8547C290.385 57.9456 290.97 57.9095 291.528 57.7491C291.687 57.7199 291.839 57.6617 291.976 57.5775C292.045 57.5361 292.099 57.4748 292.132 57.4017C292.165 57.3286 292.175 57.2473 292.161 57.1684" fill="#EB996E"/>
<path d="M289.243 54.0278C289.15 54.0278 289.005 54.3445 289.045 54.8988C289.115 55.6472 289.452 56.3452 289.995 56.8652C290.544 57.379 291.262 57.6747 292.014 57.6967C292.582 57.6967 292.899 57.5383 292.885 57.4591C292.872 57.3799 291.566 57.3667 290.47 56.3637C289.375 55.3607 289.428 54.0278 289.243 54.0278Z" fill="#263238"/>
<path d="M309.33 84.6856C309.33 84.6856 334.894 106.91 335.554 104.178C339.157 89.4631 338.193 70.6831 337.56 63.5037C337.164 62.8835 336.702 62.184 336.161 61.4449C335.501 60.6123 334.712 59.8905 333.825 59.307C332.762 58.5041 331.594 57.8513 330.354 57.3669C329.179 57.0238 329.034 55.4533 330.011 55.0838C330.987 54.7143 334.3 55.5457 337.335 58.0796C340.371 60.6135 339.13 54.5955 338.721 52.3915C338.312 50.1875 337.401 43.3249 337.942 42.6782C338.787 41.7412 339.988 42.4934 340.358 44.6974C340.727 46.9014 342.258 53.4605 343.406 53.2229C344.554 52.9854 342.311 41.794 342.311 41.794C342.311 41.794 341.44 39.4712 342.759 39.1545C345.161 38.5606 346.653 50.6098 346.719 51.758C346.798 52.5499 348.038 52.3387 347.933 51.4809C347.827 50.6231 345.439 40.3686 347.933 39.7484C349.794 39.2733 349.253 49.6464 350.929 51.5337C352.605 53.4209 350.533 43.6152 352.328 43.2193C353.001 43.0873 353.529 43.0741 353.898 48.8546C353.991 53.5102 353.823 58.1673 353.397 62.8043C354.98 78.6412 358.082 127.274 336.134 125.598C310.228 123.631 304.263 103.162 304.263 103.162L309.33 84.6856Z" fill="#FFBE9D"/>
<path d="M237.722 120.015L242.156 97.7903C245.416 79.591 270.927 78.3372 270.927 78.3372L290.947 78.0073C290.947 78.0073 304.277 77.585 314.953 86.3349C325.63 95.0848 332.783 101.829 332.783 101.829L316.036 121.202L306.111 114.604C306.111 114.604 309.688 121.044 309.094 126.481C308.526 131.76 302.983 135.799 302.983 135.799L307.154 180.499L241.774 177.859L250.194 120.015H237.722Z" fill="#F83A2D"/>
<path d="M240.837 102.647C241.048 103.212 241.304 103.759 241.602 104.284C243.869 108.217 247.513 111.17 251.83 112.572C255.343 113.674 259.103 113.716 262.639 112.69C264.704 112.104 266.623 111.093 268.274 109.721C270.128 108.225 271.314 106.057 271.574 103.69C271.663 102.411 271.392 101.132 270.793 99.9991C270.193 98.8657 269.289 97.9224 268.182 97.2758C267.577 96.958 266.912 96.7703 266.23 96.7248C265.548 96.6794 264.865 96.7772 264.223 97.0119C262.921 97.4913 261.804 98.3687 261.029 99.5194C260.219 100.685 259.76 102.06 259.709 103.479C259.69 104.906 259.997 106.319 260.607 107.609C261.889 110.224 263.843 112.451 266.268 114.063C268.763 115.792 271.574 117.011 274.541 117.649C277.508 118.288 280.572 118.334 283.557 117.785C286.602 117.226 289.48 115.985 291.977 114.155C294.439 112.392 296.311 109.927 297.348 107.082C298.31 104.294 298.212 101.249 297.071 98.5296C296.532 97.2143 295.67 96.0558 294.565 95.161C293.46 94.2661 292.148 93.6636 290.75 93.409C289.383 93.196 287.986 93.4869 286.818 94.2274C285.651 94.9679 284.792 96.1076 284.402 97.4342C284.127 98.7347 284.363 100.091 285.061 101.222C285.699 102.315 286.608 103.224 287.701 103.861C289.818 104.908 292.225 105.215 294.537 104.732C296.625 104.361 298.675 103.8 300.661 103.056C304.15 101.91 307.277 99.8662 309.728 97.1307C311.523 94.9978 312.559 92.3282 312.671 89.5422C312.758 87.7897 312.366 86.0465 311.536 84.5007C311.245 83.9686 310.88 83.4799 310.453 83.049C310.453 83.049 310.849 83.5373 311.417 84.5667C312.171 86.107 312.507 87.8179 312.393 89.529C312.241 92.2372 311.202 94.8202 309.437 96.8799C307.008 99.5371 303.922 101.508 300.489 102.594C298.531 103.311 296.513 103.85 294.458 104.204C292.27 104.657 289.994 104.365 287.991 103.373C286.985 102.799 286.148 101.971 285.563 100.971C284.943 99.9562 284.74 98.7408 284.996 97.5794C285.356 96.4054 286.129 95.4017 287.173 94.7539C288.216 94.1061 289.458 93.8581 290.67 94.0557C291.959 94.2979 293.166 94.8599 294.18 95.69C295.195 96.5201 295.985 97.5918 296.477 98.8067C297.552 101.377 297.637 104.254 296.715 106.884C295.726 109.599 293.935 111.951 291.581 113.627C289.166 115.384 286.388 116.579 283.451 117.125C277.599 118.197 271.561 116.901 266.664 113.522C264.336 111.984 262.456 109.857 261.214 107.359C260.644 106.155 260.355 104.837 260.369 103.505C260.419 102.216 260.841 100.97 261.583 99.9153C262.274 98.8691 263.276 98.066 264.447 97.619C265.009 97.4131 265.607 97.3256 266.205 97.3619C266.802 97.3982 267.385 97.5577 267.918 97.8301C268.925 98.4262 269.747 99.2889 270.294 100.323C270.842 101.357 271.093 102.522 271.019 103.69C270.903 104.789 270.57 105.853 270.04 106.823C269.51 107.792 268.793 108.647 267.931 109.338C266.351 110.683 264.502 111.673 262.507 112.242C259.064 113.281 255.392 113.281 251.949 112.242C249.357 111.442 246.979 110.066 244.994 108.217C243.735 107.049 242.639 105.717 241.734 104.257L241.074 103.096L240.837 102.647Z" fill="white"/>
<path d="M243.567 170.561L243.924 170.72C244.161 170.799 244.518 170.957 244.993 171.089C246.392 171.507 247.837 171.755 249.295 171.828C251.611 171.959 253.932 171.691 256.158 171.037C259.121 170.175 261.836 168.619 264.076 166.497C266.178 164.469 267.815 162.011 268.877 159.291C269.939 156.571 270.399 153.654 270.226 150.739C270.147 148.506 269.522 146.326 268.405 144.391C267.788 143.378 266.937 142.527 265.924 141.91C264.868 141.286 263.652 140.983 262.426 141.039C261.79 141.052 261.163 141.197 260.584 141.462C260.005 141.728 259.487 142.109 259.061 142.583C258.197 143.562 257.727 144.827 257.741 146.133C257.739 147.433 258.12 148.705 258.837 149.789C259.561 150.861 260.49 151.78 261.569 152.494C263.748 153.913 266.204 154.853 268.774 155.252C273.866 156.03 279.069 154.983 283.463 152.296C285.545 151.038 287.369 149.394 288.835 147.453C290.298 145.606 291.253 143.408 291.606 141.078C291.765 139.956 291.688 138.812 291.379 137.721C291.07 136.63 290.536 135.616 289.811 134.744C289.119 133.896 288.205 133.256 287.172 132.896C286.151 132.561 285.054 132.533 284.018 132.817C283.005 133.06 282.086 133.597 281.378 134.361C280.693 135.104 280.3 136.069 280.269 137.08C280.289 138.005 280.514 138.914 280.927 139.743C281.34 140.571 281.931 141.298 282.658 141.87C283.906 142.941 285.362 143.741 286.934 144.219C288.309 144.678 289.737 144.957 291.184 145.051C293.506 145.195 295.833 144.839 298.007 144.008C299.365 143.468 300.64 142.739 301.794 141.844C302.1 141.616 302.391 141.369 302.665 141.105C302.85 140.933 302.943 140.841 302.929 140.828C302.916 140.814 302.52 141.158 301.715 141.725C298.666 143.946 294.916 144.992 291.157 144.668C289.744 144.558 288.351 144.265 287.013 143.797C285.503 143.329 284.109 142.546 282.922 141.501C282.258 140.974 281.718 140.307 281.342 139.547C280.965 138.787 280.761 137.954 280.745 137.106C280.82 136.203 281.188 135.35 281.793 134.676C282.399 134.001 283.207 133.543 284.097 133.371C285.021 133.12 285.999 133.147 286.908 133.45C287.847 133.778 288.678 134.358 289.31 135.126C289.972 135.94 290.459 136.882 290.74 137.892C291.022 138.903 291.092 139.96 290.946 140.999C290.608 143.214 289.698 145.301 288.307 147.057C286.886 148.931 285.122 150.516 283.107 151.729C278.849 154.315 273.819 155.324 268.893 154.579C266.42 154.195 264.055 153.295 261.951 151.94C260.926 151.345 260.065 150.504 259.447 149.492C258.83 148.48 258.475 147.33 258.414 146.146C258.391 145.012 258.775 143.907 259.497 143.032C259.867 142.631 260.313 142.307 260.809 142.081C261.305 141.854 261.842 141.729 262.387 141.712C263.487 141.666 264.577 141.937 265.528 142.491C266.455 143.053 267.238 143.826 267.811 144.747C268.873 146.596 269.47 148.675 269.553 150.805C269.677 152.827 269.494 154.856 269.012 156.823C268.124 160.37 266.274 163.603 263.667 166.167C261.499 168.262 258.867 169.817 255.986 170.707C252.407 171.8 248.596 171.896 244.966 170.984C244.082 170.707 243.581 170.535 243.567 170.561Z" fill="white"/>
<path d="M265.701 96.3917C265.521 96.8449 265.402 97.3196 265.345 97.8039C265.134 98.8729 264.883 100.179 264.579 101.763C263.906 105.221 263.035 109.682 262.085 114.631C261.135 119.58 260.304 124.238 259.776 127.551C259.525 129.214 259.327 130.56 259.221 131.51C259.134 131.993 259.107 132.485 259.142 132.975C259.311 132.515 259.426 132.036 259.485 131.55C259.696 130.481 259.96 129.187 260.264 127.656C260.937 124.199 261.795 119.738 262.758 114.776C263.722 109.814 264.54 105.181 265.055 101.855C265.319 100.193 265.503 98.8464 265.609 97.8962C265.709 97.4013 265.74 96.8951 265.701 96.3917Z" fill="#263238"/>
<path d="M237.311 120.2C241.325 120.566 245.357 120.694 249.387 120.582C253.414 120.71 257.446 120.613 261.462 120.292C257.448 119.925 253.416 119.793 249.387 119.896C245.359 119.777 241.328 119.878 237.311 120.2Z" fill="#263238"/>
<path d="M316.035 121.163C318.975 118.1 321.75 114.884 324.349 111.528C327.125 108.323 329.72 104.966 332.123 101.472C329.181 104.528 326.405 107.739 323.808 111.093C321.04 114.309 318.445 117.67 316.035 121.163Z" fill="#263238"/>
<path d="M272.708 78.4033C273.698 78.642 274.713 78.7572 275.731 78.7464C277.605 78.852 280.191 78.918 283.055 78.8784C285.919 78.8388 288.492 78.6936 290.366 78.5221C291.384 78.5031 292.395 78.3568 293.375 78.0865C292.366 77.983 291.349 77.983 290.34 78.0865L283.042 78.2449L275.744 78.3109C274.731 78.2432 273.715 78.2741 272.708 78.4033Z" fill="#263238"/>
<path d="M308.936 120.345C308.662 119.421 308.277 118.535 307.787 117.705L306.362 114.881C305.648 113.88 305.299 112.664 305.372 111.437C305.861 108.797 306.336 106.29 306.613 104.521C306.83 103.564 306.936 102.586 306.93 101.604C306.554 102.511 306.288 103.459 306.138 104.429C305.729 106.197 305.187 108.599 304.699 111.344C304.557 112.06 304.64 112.802 304.937 113.469C305.195 114.052 305.486 114.621 305.808 115.171C306.362 116.148 306.877 117.072 307.352 117.943C307.788 118.8 308.32 119.606 308.936 120.345Z" fill="#263238"/>
<path d="M361.948 325.723V312.116L337.572 311.958L337.361 332.309L338.879 332.414C345.61 332.85 373.1 333.734 377.613 332.295C382.655 330.738 361.948 325.723 361.948 325.723Z" fill="#F83A2D"/>
<path d="M378.194 331.055C378.194 331.279 369.075 331.464 357.817 331.464C346.56 331.464 337.454 331.279 337.454 331.055C337.454 330.83 346.573 330.632 357.817 330.632C369.062 330.632 378.194 330.83 378.194 331.055Z" fill="#263238"/>
<path d="M362.384 328.535C362.186 328.429 362.384 327.703 362.873 327.004C363.361 326.304 364.034 325.908 364.192 326.067C364.351 326.225 364.021 326.832 363.546 327.492C363.071 328.152 362.582 328.614 362.384 328.535Z" fill="#263238"/>
<path d="M363.944 329.405C363.732 329.326 363.838 328.521 364.313 327.663C364.788 326.805 365.422 326.343 365.633 326.449C365.844 326.555 365.501 327.28 365.065 328.072C364.63 328.864 364.181 329.484 363.944 329.405Z" fill="#263238"/>
<path d="M344.792 330.962C344.7 331.028 344.344 330.672 343.816 330.065C343.167 329.291 342.452 328.575 341.678 327.927C340.91 327.326 340.001 326.931 339.038 326.779C338.299 326.673 337.811 326.779 337.718 326.673C337.626 326.568 338.141 326.238 339.038 326.185C340.174 326.175 341.279 326.557 342.166 327.267C343.011 327.949 343.723 328.781 344.264 329.722C344.7 330.421 344.885 330.896 344.792 330.962Z" fill="#263238"/>
<path d="M362.452 325.894C362.571 326.079 362.161 326.554 361.462 326.818C360.763 327.082 360.142 326.977 360.142 326.752C360.142 326.528 360.604 326.264 361.211 326.04C361.818 325.815 362.333 325.749 362.452 325.894Z" fill="#263238"/>
<path d="M362.067 324.575C362.067 324.799 361.447 324.997 360.616 325.01C359.784 325.023 359.138 324.852 359.164 324.614C359.19 324.377 359.824 324.192 360.616 324.179C361.408 324.166 362.054 324.403 362.067 324.575Z" fill="#263238"/>
<path d="M310.479 325.723V312.116L286.104 311.958L285.892 332.309L287.41 332.414C294.128 332.85 321.631 333.734 326.145 332.295C331.186 330.738 310.479 325.723 310.479 325.723Z" fill="#F83A2D"/>
<path d="M326.712 331.055C326.712 331.279 317.592 331.464 306.348 331.464C295.104 331.464 285.985 331.279 285.985 331.055C285.985 330.83 295.091 330.632 306.348 330.632C317.606 330.632 326.712 330.83 326.712 331.055Z" fill="#263238"/>
<path d="M310.916 328.535C310.704 328.429 310.915 327.703 311.404 327.004C311.892 326.304 312.565 325.908 312.724 326.067C312.882 326.225 312.552 326.832 312.077 327.492C311.602 328.152 311.113 328.614 310.916 328.535Z" fill="#263238"/>
<path d="M312.459 329.405C312.247 329.326 312.366 328.521 312.841 327.663C313.316 326.805 313.95 326.343 314.161 326.449C314.372 326.555 314.029 327.28 313.594 328.072C313.158 328.864 312.709 329.484 312.459 329.405Z" fill="#263238"/>
<path d="M293.321 330.962C293.228 331.028 292.859 330.672 292.331 330.065C291.69 329.284 290.974 328.568 290.193 327.927C289.427 327.322 288.518 326.927 287.553 326.779C286.814 326.673 286.326 326.779 286.234 326.673C286.141 326.568 286.643 326.238 287.553 326.185C288.689 326.175 289.794 326.557 290.681 327.267C291.523 327.952 292.234 328.784 292.779 329.722C293.228 330.421 293.413 330.896 293.321 330.962Z" fill="#263238"/>
<path d="M310.98 325.894C311.099 326.079 310.69 326.554 309.99 326.818C309.291 327.082 308.671 326.977 308.671 326.752C308.671 326.528 309.132 326.264 309.74 326.04C310.347 325.815 310.861 325.749 310.98 325.894Z" fill="#263238"/>
<path d="M310.599 324.575C310.599 324.799 309.979 324.997 309.147 325.01C308.316 325.023 307.669 324.852 307.682 324.614C307.696 324.377 308.356 324.192 309.134 324.179C309.913 324.166 310.586 324.403 310.599 324.575Z" fill="#263238"/>
<path d="M234.99 137.805C236.31 127.128 237.722 120.239 237.722 120.239L260.962 120.595C260.962 120.595 258.877 132.328 259.524 135.469C260.078 138.214 304.936 140.022 316.629 140.207C317.315 139.692 318.332 140.563 319.269 139.784C320.067 139.084 320.74 138.254 321.262 137.33C321.959 136.199 322.496 134.978 322.858 133.7C322.877 133.446 322.976 133.205 323.143 133.012C323.309 132.818 323.533 132.684 323.781 132.628C324.03 132.571 324.29 132.597 324.523 132.699C324.756 132.802 324.95 132.977 325.076 133.199C325.551 134.202 325.076 137.528 322.806 140.748C320.536 143.968 326.395 142.292 328.533 141.724C330.671 141.157 337.336 139.705 338.035 140.246C339.038 141.025 338.405 142.279 336.267 142.807C334.129 143.334 327.807 145.34 328.151 146.475C328.494 147.61 339.302 144.549 339.302 144.549C339.302 144.549 341.52 143.506 341.942 144.813C342.747 147.162 331.014 149.55 329.893 149.748C329.114 149.88 329.444 151.134 330.275 150.949C331.107 150.765 340.992 147.637 341.836 150.026C342.47 151.86 332.202 152.071 330.5 153.892C328.797 155.714 338.273 152.903 338.814 154.684C339.012 155.344 335.079 155.648 329.418 156.44C323.598 157.005 317.75 157.216 311.905 157.073C298.707 157.786 252.318 158.749 242.394 158.05C230.806 157.231 234.554 141.474 234.99 137.805Z" fill="#FFBE9D"/>
<path d="M342.047 175.444C322.038 173.448 301.894 173.191 281.84 174.678L307.285 211.222L330.249 211.314L335.053 323.585H365.499L362.596 198.354C362.465 192.713 360.323 187.303 356.555 183.102C352.787 178.901 347.642 176.185 342.047 175.444Z" fill="#263238"/>
<path opacity="0.2" d="M342.047 175.444C322.038 173.448 301.894 173.191 281.84 174.678L307.285 211.222L330.249 211.314L335.053 323.585H365.499L362.596 198.354C362.465 192.713 360.323 187.303 356.555 183.102C352.787 178.901 347.642 176.185 342.047 175.444Z" fill="black"/>
<path d="M286.142 214.099C286.142 214.099 240.651 217.188 241.786 176.342C241.786 176.342 305.041 168.647 317.156 181.7C327.318 192.64 318.027 323.585 318.027 323.585L284.202 321.936" fill="#263238"/>
<path d="M276.68 174.124C276.978 174.16 277.279 174.16 277.577 174.124L280.151 174.23C282.381 174.322 285.601 174.507 289.587 174.797L296.093 175.299C298.429 175.523 300.937 175.721 303.497 176.183C306.193 176.679 308.842 177.403 311.415 178.347C314.055 179.363 316.694 180.881 318.014 183.626C319.208 186.304 319.97 189.155 320.271 192.072C320.598 194.806 320.787 197.555 320.838 200.308C320.957 205.587 321.208 210.338 321.379 214.337C321.551 218.335 321.67 221.463 321.762 223.773C321.762 224.842 321.828 225.686 321.854 226.346C321.848 226.647 321.87 226.947 321.92 227.244C321.98 226.948 322.002 226.647 321.986 226.346C321.986 225.765 321.986 224.894 321.986 223.773C321.986 221.542 321.986 218.309 321.828 214.31C321.67 210.311 321.525 205.56 321.432 200.294C321.403 197.52 321.222 194.748 320.891 191.993C320.6 188.998 319.824 186.069 318.595 183.323C317.907 181.912 316.877 180.696 315.599 179.786C314.372 178.934 313.041 178.242 311.64 177.727C309.023 176.781 306.329 176.061 303.589 175.576C300.95 175.127 298.442 174.942 296.106 174.744C293.77 174.546 291.566 174.427 289.574 174.322C285.614 174.098 282.355 173.992 280.111 173.966C279.002 173.966 278.131 173.966 277.537 173.966C277.247 173.988 276.959 174.041 276.68 174.124Z" fill="#455A64"/>
<path d="M283.94 313.41C284.369 313.539 284.812 313.61 285.26 313.621C286.118 313.701 287.385 313.806 288.942 313.912C292.043 314.136 296.346 314.387 301.097 314.624C305.848 314.862 310.15 315.047 313.265 315.139C314.822 315.139 316.089 315.218 316.96 315.218C317.401 315.254 317.845 315.232 318.28 315.152C317.85 315.033 317.406 314.966 316.96 314.954C316.089 314.862 314.835 314.769 313.278 314.664C310.177 314.44 305.874 314.189 301.123 313.938C296.372 313.687 292.07 313.529 288.955 313.423C287.398 313.423 286.131 313.357 285.26 313.357C284.819 313.322 284.376 313.34 283.94 313.41Z" fill="#455A64"/>
<path d="M334.05 314.941C334.05 315.126 341.11 315.284 349.887 315.284C358.663 315.284 365.724 315.126 365.724 314.941C365.724 314.756 358.65 314.598 349.887 314.598C341.124 314.598 334.05 314.743 334.05 314.941Z" fill="#455A64"/>
<path d="M320.074 188.892C320.201 188.912 320.33 188.912 320.457 188.892L321.579 188.8C322.556 188.707 324.007 188.588 325.881 188.509C327.755 188.43 330.052 188.351 332.704 188.509C334.12 188.571 335.53 188.716 336.928 188.945C338.484 189.149 339.99 189.632 341.375 190.37C342.099 190.748 342.683 191.35 343.038 192.086C343.381 192.901 343.668 193.739 343.896 194.593C344.381 196.42 344.747 198.276 344.991 200.149C345.374 204.109 345.717 208.266 346.034 212.687C346.667 221.542 347.129 231.282 347.499 241.51C348.185 261.993 348.964 280.522 349.518 293.944C349.808 300.608 350.046 306.019 350.217 309.78C350.323 311.615 350.389 313.067 350.442 314.096C350.442 314.558 350.442 314.927 350.521 315.218C350.506 315.345 350.506 315.473 350.521 315.601C350.535 315.473 350.535 315.345 350.521 315.218V314.096C350.521 313.053 350.521 311.615 350.415 309.767C350.31 305.966 350.138 300.529 349.94 293.93C349.465 280.469 348.818 261.953 348.119 241.497C347.749 231.269 347.261 221.516 346.601 212.661C346.267 208.261 345.897 204.069 345.493 200.083C345.238 198.184 344.85 196.306 344.331 194.461C344.104 193.58 343.804 192.719 343.434 191.888C343.029 191.063 342.373 190.389 341.56 189.961C340.114 189.21 338.545 188.723 336.928 188.522C335.511 188.311 334.083 188.183 332.652 188.14C330.367 188.073 328.081 188.122 325.802 188.285C323.928 188.417 322.476 188.588 321.5 188.707L320.378 188.879C320.277 188.871 320.175 188.876 320.074 188.892Z" fill="#455A64"/>
<path d="M249.362 175.563C249.341 175.716 249.341 175.871 249.362 176.025C249.362 176.328 249.428 176.79 249.533 177.344C249.851 179.084 250.472 180.755 251.368 182.28C252.541 184.246 254.142 185.921 256.053 187.182C257.963 188.444 260.133 189.258 262.401 189.565C264.349 189.737 266.306 189.794 268.261 189.737H289.086C290.406 189.737 291.726 189.737 292.966 189.737C294.263 189.785 295.536 190.09 296.714 190.634C297.93 191.195 299.022 191.991 299.928 192.977C300.834 193.962 301.536 195.117 301.993 196.375C302.45 197.689 302.656 199.077 302.6 200.466V204.835C302.6 210.707 302.6 216.792 302.6 223.034C302.6 247.951 302.679 270.545 302.706 286.883C302.706 295.013 302.785 301.625 302.811 306.231C302.811 308.487 302.811 310.19 302.811 311.51C302.811 312.077 302.811 312.526 302.811 312.829C302.811 313.133 302.811 313.291 302.811 313.291C302.83 313.138 302.83 312.983 302.811 312.829C302.811 312.486 302.811 312.037 302.811 311.51C302.811 310.19 302.811 308.5 302.811 306.231C302.811 301.625 302.811 295.013 302.917 286.883C302.917 270.505 302.983 247.951 303.023 223.034C303.023 216.792 303.023 210.707 303.023 204.835V200.519C303.07 199.051 302.842 197.587 302.35 196.204C301.859 194.862 301.105 193.631 300.133 192.585C299.161 191.538 297.99 190.695 296.688 190.106C295.441 189.54 294.097 189.222 292.729 189.169C291.409 189.169 290.089 189.169 288.769 189.169H281.326L267.97 189.248C266.038 189.317 264.104 189.278 262.177 189.13C259.958 188.845 257.832 188.068 255.953 186.855C254.073 185.643 252.489 184.026 251.315 182.122C250.401 180.632 249.745 178.999 249.375 177.292C249.256 176.711 249.203 176.262 249.151 175.972C249.098 175.682 249.362 175.563 249.362 175.563Z" fill="#455A64"/>
<path d="M285.695 205.046C285.426 208.537 285.626 212.048 286.289 215.485C286.52 213.733 286.52 211.958 286.289 210.206C286.311 208.468 286.112 206.734 285.695 205.046Z" fill="#455A64"/>
<path d="M474.577 129.636C474.577 129.636 476.042 117.982 474.894 117.982C473.746 117.982 473.033 129.636 473.033 129.636H474.96" fill="#263238"/>
<path d="M470.776 129.636C470.776 129.636 472.241 117.982 471.08 117.982C469.918 117.982 469.232 129.636 469.232 129.636H471.159" fill="#F83A2D"/>
<path opacity="0.3" d="M470.776 129.636C470.776 129.636 472.241 117.982 471.08 117.982C469.918 117.982 469.232 129.636 469.232 129.636H471.159" fill="black"/>
<path d="M464.955 129.636C464.955 129.636 466.42 117.982 465.259 117.982C464.097 117.982 463.411 129.636 463.411 129.636H465.338" fill="#263238"/>
<path d="M468.36 130.242C468.36 130.242 468.36 118.51 467.199 118.655C466.038 118.8 466.83 130.44 466.83 130.44L468.743 130.203" fill="#455A64"/>
<path d="M471.924 129.636C471.924 129.636 473.389 117.982 472.228 117.982C471.066 117.982 470.38 129.636 470.38 129.636H472.307" fill="#F83A2D"/>
<path opacity="0.5" d="M471.924 129.636C471.924 129.636 473.389 117.982 472.228 117.982C471.066 117.982 470.38 129.636 470.38 129.636H472.307" fill="white"/>
<path d="M474.813 147.967L476.753 129.635H461.207V147.967H474.813Z" fill="#F83A2D"/>
<path d="M144.256 148.047H487.772V157.219H469.401L478.916 332.269H473.677L464.162 157.219H162.996L154.88 332.243L149.086 332.547L157.757 157.219H144.256V148.047Z" fill="#263238"/>
<path d="M375.318 93.8707L356.261 149.537H270.003L270.65 146.66L305.53 145.591L321.592 93.8443L375.318 93.8707Z" fill="#263238"/>
<path d="M337.084 120.015C336.517 122.298 337.493 124.529 339.275 125.004C341.057 125.479 342.944 124.014 343.511 121.731C344.079 119.448 343.102 117.217 341.334 116.742C339.565 116.267 337.652 117.732 337.084 120.015Z" fill="white"/>
<path d="M170.178 131.021C171.716 129.882 173.615 129.338 175.523 129.49C175.523 128.448 175.523 127.814 175.523 127.814H204.782C204.782 127.814 205.693 147.096 190.938 147.782C184.339 148.085 180.538 145.142 178.374 141.394C177.294 141.659 176.186 141.796 175.075 141.803C173.438 141.865 171.824 141.403 170.469 140.484C169.729 139.902 169.143 139.148 168.761 138.287C168.38 137.427 168.214 136.487 168.278 135.548C168.236 134.699 168.384 133.852 168.713 133.068C169.042 132.285 169.543 131.585 170.178 131.021ZM172.171 138.187C173.491 139.124 175.655 138.979 177.107 138.715C176.37 136.671 175.892 134.543 175.682 132.381C174.402 132.225 173.108 132.524 172.026 133.225C171.712 133.522 171.469 133.887 171.316 134.292C171.163 134.696 171.103 135.13 171.142 135.561C171.09 136.051 171.157 136.545 171.339 137.003C171.52 137.46 171.811 137.867 172.184 138.187H172.171Z" fill="#F83A2D"/>
<path d="M177.992 125.782C178.262 125.543 178.497 125.267 178.691 124.964C179.277 124.103 179.686 123.134 179.892 122.113C180.243 120.483 180.091 118.785 179.457 117.243C178.445 115.316 177.053 113.615 175.365 112.241C173.457 110.496 172.161 108.182 171.67 105.642C171.087 102.755 171.65 99.7544 173.241 97.2753C174.09 95.9462 175.193 94.7981 176.487 93.8968C177.887 93.0111 179.407 92.3311 181.001 91.8776C182.731 91.3982 184.351 90.5819 185.765 89.4756C186.478 88.8584 187.053 88.0987 187.454 87.2453C187.895 86.3589 188.021 85.3488 187.811 84.3814L187.692 83.9855L187.256 84.421C188.021 84.7709 188.672 85.3266 189.138 86.0258C189.605 86.7251 189.867 87.5403 189.896 88.3802C189.981 90.0588 189.607 91.7288 188.814 93.2105C188.088 94.7282 187.19 96.1535 186.544 97.6976C185.815 99.1982 185.497 100.865 185.62 102.528C185.828 104.126 186.595 105.598 187.784 106.685C188.866 107.693 190.105 108.518 191.453 109.127C194.013 110.288 196.534 110.974 198.54 112.175C200.357 113.228 201.798 114.825 202.658 116.742C203.312 118.189 203.649 119.759 203.648 121.347C203.606 122.7 203.348 124.036 202.882 125.307C202.882 125.307 202.882 125.227 203.014 125.069C203.14 124.837 203.246 124.594 203.331 124.343C203.685 123.378 203.881 122.362 203.912 121.334C203.963 119.694 203.652 118.063 203.001 116.557C202.148 114.543 200.673 112.855 198.791 111.74C196.484 110.559 194.114 109.506 191.691 108.586C190.413 107.997 189.241 107.203 188.22 106.236C187.136 105.241 186.439 103.895 186.253 102.436C186.147 100.884 186.452 99.3312 187.138 97.9352C187.771 96.4571 188.669 95.0318 189.421 93.4613C190.284 91.8749 190.682 90.0772 190.569 88.2747C190.471 87.3387 190.165 86.4367 189.672 85.6352C189.158 84.7965 188.377 84.155 187.454 83.8139L186.834 83.6028L187.019 84.2494L187.111 84.5794C187.224 85.4134 187.115 86.2623 186.795 87.0407C186.475 87.8192 185.956 88.4997 185.29 89.0137C183.941 90.0508 182.404 90.8171 180.763 91.2705C179.113 91.7525 177.539 92.468 176.091 93.3953C174.724 94.3425 173.565 95.5597 172.686 96.9718C171.024 99.5893 170.451 102.753 171.09 105.788C171.65 108.414 173.038 110.791 175.049 112.571C176.718 113.887 178.104 115.525 179.127 117.388C179.76 118.855 179.944 120.476 179.655 122.047C179.399 123.405 178.83 124.684 177.992 125.782Z" fill="#263238"/>
<path d="M447.586 100.061L447.757 87.4439L403.533 91.192L402.279 102.449L447.586 100.061Z" fill="#263238"/>
<path d="M442.716 100.324C443.132 98.2791 443.331 96.1956 443.31 94.1084C443.499 92.0299 443.464 89.937 443.204 87.8661C442.787 89.911 442.592 91.9952 442.624 94.0821C442.425 96.1599 442.456 98.2534 442.716 100.324Z" fill="#455A64"/>
<path d="M441.053 88.0112C440.667 90.0505 440.507 92.1264 440.578 94.2008C440.412 96.2741 440.482 98.3596 440.789 100.417C441.169 98.3721 441.328 96.2927 441.264 94.214C441.423 92.145 441.352 90.0647 441.053 88.0112Z" fill="#455A64"/>
<path d="M437.03 93.6201C429.322 94.4647 420.269 94.9398 412.43 95.6525Z" fill="white"/>
<path d="M412.43 95.5996C413.635 95.6858 414.845 95.6638 416.046 95.5336C418.289 95.428 421.325 95.23 424.756 94.9793C428.188 94.7285 431.236 94.4382 433.453 94.1743C434.663 94.0937 435.861 93.8903 437.03 93.5671C435.823 93.4939 434.613 93.5336 433.414 93.6859L424.717 94.293C421.312 94.5438 418.237 94.8077 416.019 95.0585C414.808 95.1184 413.605 95.2997 412.43 95.5996Z" fill="#455A64"/>
<path d="M409.196 102.08C409.838 98.3547 410.024 94.5656 409.751 90.7958C409.109 94.5206 408.923 98.3098 409.196 102.08Z" fill="#455A64"/>
<path d="M406.412 102.225C406.935 100.393 407.237 98.5058 407.309 96.6026C407.611 94.7223 407.682 92.812 407.52 90.9145C407.006 92.7477 406.705 94.6342 406.623 96.5366C406.329 98.4177 406.258 100.327 406.412 102.225Z" fill="#455A64"/>
<path d="M430.472 96.3917C425.602 96.7217 421.893 96.9592 418.013 97.0516Z" fill="white"/>
<path d="M418.013 97.0509C420.087 97.2859 422.182 97.2859 424.256 97.0509C426.346 97.05 428.43 96.8243 430.472 96.3778C428.397 96.1434 426.303 96.1434 424.229 96.3778C422.139 96.3787 420.055 96.6043 418.013 97.0509Z" fill="#455A64"/>
<path d="M439.036 148.205L440.237 135.641L395.867 135.72L393.452 148.046L439.036 148.205Z" fill="#F83A2D"/>
<path opacity="0.5" d="M439.036 148.205L440.237 135.641L395.867 135.72L393.452 148.046L439.036 148.205Z" fill="white"/>
<path d="M430.109 140.55L430.113 142.82L402.359 142.868L402.355 140.598L430.109 140.55Z" fill="#263238"/>
<path d="M445.29 136.697L446.359 124.133L401.99 124.674L399.918 135.826L445.29 136.697Z" fill="#263238"/>
<path d="M446.214 125.835L445.515 134.321L402.359 133.886L403.732 126.125L446.214 125.835Z" fill="white"/>
<path d="M406.001 129.596C406.515 129.691 407.037 129.727 407.559 129.702H411.808C415.398 129.702 420.347 129.702 425.811 129.57C431.275 129.438 436.224 129.345 439.813 129.227L444.05 129.042C444.573 129.055 445.097 129.001 445.607 128.884C445.094 128.787 444.571 128.751 444.05 128.778H439.8C436.224 128.778 431.275 128.778 425.798 128.91C420.321 129.042 415.385 129.134 411.795 129.253L407.559 129.438C407.035 129.425 406.512 129.478 406.001 129.596Z" fill="#263238"/>
<path d="M406.002 130.665C406.517 130.782 407.044 130.835 407.572 130.823L411.848 130.995C415.451 131.114 420.44 131.219 425.943 131.299C431.446 131.378 436.501 131.404 440.051 131.391H444.327C444.853 131.417 445.381 131.377 445.897 131.272C445.38 131.172 444.854 131.119 444.327 131.114L440.051 130.942C436.448 130.837 431.459 130.731 425.956 130.652C420.453 130.573 415.464 130.533 411.848 130.546H407.572C407.046 130.534 406.52 130.573 406.002 130.665Z" fill="#263238"/>
<path d="M444.63 124.7L445.462 112.109L401.105 113.508L399.258 124.686L444.63 124.7Z" fill="#455A64"/>
<path d="M442.874 123.116L399.705 122.496L400.906 114.657L443.679 113.865L442.874 123.116Z" fill="white"/>
<path d="M443.415 112.347L443.824 99.7435L399.547 102.634L398.069 113.865L443.415 112.347Z" fill="#F83A2D"/>
<path d="M434.347 103.111L434.483 105.38L406.729 107.046L406.593 104.776L434.347 103.111Z" fill="#263238"/>
<path d="M400.473 117.89C401.03 117.988 401.596 118.032 402.162 118.022L406.781 118.154C410.74 118.233 416.019 118.286 422.011 118.312C428.003 118.339 433.348 118.312 437.254 118.312L441.86 118.22C442.431 118.239 443.002 118.195 443.562 118.088C443.005 117.99 442.439 117.945 441.873 117.956L437.254 117.824C433.295 117.745 428.016 117.692 422.011 117.666C416.006 117.639 410.675 117.666 406.781 117.666L402.162 117.758C401.596 117.738 401.029 117.782 400.473 117.89Z" fill="#263238"/>
<path d="M399.959 120.331C400.526 120.426 401.101 120.461 401.675 120.437H406.32C410.279 120.437 415.677 120.437 421.669 120.318C427.66 120.199 433.071 120.133 437.004 120.015L441.65 119.843C442.221 119.839 442.79 119.786 443.352 119.685C442.791 119.579 442.22 119.539 441.65 119.566H437.004C433.045 119.566 427.647 119.566 421.655 119.671C415.664 119.777 410.24 119.869 406.307 119.988L401.661 120.16C401.089 120.151 400.518 120.209 399.959 120.331Z" fill="#263238"/>
</svg>
